<?xml version="1.0" encoding="UTF-8" standalone="no"?> <svg xmlns:inkscape="http://www.inkscape.org/namespaces/inkscape" xmlns:sodipodi="http://sodipodi.sourceforge.net/DTD/sodipodi-0.dtd" xmlns="http://www.w3.org/2000/svg" xmlns:svg="http://www.w3.org/2000/svg" width="54.204769mm" height="16.656698mm" viewBox="0 0 54.204769 16.656698" version="1.1" id="svg17640" inkscape:version="1.1 (c68e22c387, 2021-05-23)" sodipodi:docname="logoheader.svg"><defs id="defs17637"></defs><g inkscape:label="Capa 1" inkscape:groupmode="layer" id="layer1" transform="translate(-30.820857,-100.93587)"><path id="path394096" style="fill:#ffffff;fill-opacity:1;fill-rule:nonzero;stroke:none;stroke-width:0.077353" d="m 32.13184,102.52909 -1.310983,9.89135 h 3.323562 l 0.575941,-4.31934 h 1.962831 c 0.977176,0 1.16962,-0.78635 1.336286,-2.00958 h -3.03023 l 0.209276,-1.55671 h 1.569151 c 1.311553,0 1.873532,-0.32562 1.956828,-2.00572 z m 14.138217,0 c -2.835112,0 -3.274944,0.1735 -3.577867,1.98771 l -1.028804,7.90364 c 0.134796,0 0.538358,8.8e-4 0.665142,0.002 1.524091,0.0115 2.270999,0.0207 2.806373,-0.98421 0,0 1.021698,0.97949 2.518187,0.97949 1.445028,0 2.372668,-1.16221 2.661421,-2.34665 0.337894,1.88083 2.168113,2.35265 4.17911,2.35265 2.701321,0 3.951541,-0.41809 4.238292,-1.99756 h -3.319273 c -0.179074,0.79478 -0.731845,1.11157 -1.098276,1.11157 -0.494099,0 -0.596166,-0.55965 -0.631262,-0.9276 -0.02949,-0.30911 -0.0204,-0.5677 0.01759,-0.9945 h 5.126861 c 0.368335,-2.73099 -1.409565,-3.49693 -3.824454,-3.52383 -2.471564,0 -3.929899,0.74369 -4.417549,1.94654 l -0.006,-0.063 c -0.106702,-1.11867 -0.723737,-1.8865 -2.205986,-1.8865 -1.636853,0 -2.65499,0.94518 -2.65499,0.94518 z m -5.809156,0.68959 c -0.01871,-1.4e-4 -0.03748,2e-5 -0.05618,4.4e-4 -0.695416,0.0155 -1.274996,0.40183 -1.423342,0.94903 -0.184879,0.68098 0.352519,1.37879 1.200341,1.55843 0.847694,0.17993 1.61544,-0.22606 1.800298,-0.90701 0.184882,-0.68094 -0.283155,-1.37875 -1.130868,-1.55843 -0.128181,-0.0273 -0.259248,-0.0415 -0.39025,-0.0425 z m 19.367143,2.86384 -0.826389,6.33835 h 0.897578 c 1.813215,0.0214 2.4007,-6.6e-4 2.709452,-2.22872 l 0.279608,-2.17854 c 0.226985,-0.29481 0.522266,-0.35423 0.729898,-0.35423 0.400134,0 0.163015,1.08794 0.120076,1.50954 l -0.0609,0.44257 h 3.315842 c 0,0 1.011016,-3.52769 -1.039095,-3.52769 -2.068369,0 -2.954753,1.10342 -2.954753,1.10342 l 0.144949,-1.1047 z m -18.03343,0.009 c -2.493338,0 -3.281165,0.0314 -3.574865,1.79086 l -0.58795,4.53806 h 3.338143 z m 13.25479,0.83882 c 0.286986,0 0.558688,0.17655 0.616253,0.78007 0.04212,0.44163 -0.04117,1.07427 -0.04117,1.07427 h -1.816592 c 0.178334,-0.97152 0.5724,-1.85434 1.241509,-1.85434 z m -8.4174,0.47045 c 0.366813,0 0.506415,0.29486 0.542919,0.67757 0.06459,0.67711 -0.172507,3.03195 -1.176754,3.03195 -0.334758,0 -0.587825,-0.26497 -0.753914,-0.50046 l 0.368809,-2.74805 c 0.141137,-0.19134 0.604714,-0.46101 1.01894,-0.46101 z"></path><path inkscape:connector-curvature="0" id="path15777-1" style="fill:#0097ff;fill-opacity:1;fill-rule:nonzero;stroke:none;stroke-width:0.0891595" d="m 80.186661,111.5269 c -0.04304,-0.0465 -0.08607,-0.0943 -0.13025,-0.14088 -0.389735,-0.41442 -0.806936,-0.84525 -1.256923,-1.27329 -0.447201,-0.43082 -0.927186,-0.85755 -1.425019,-1.2774 -0.504794,-0.41307 -1.021613,-0.82473 -1.567419,-1.20088 -0.101263,-0.0725 -0.203665,-0.14363 -0.306446,-0.21337 0.295434,-0.21747 0.596437,-0.43215 0.90263,-0.63874 0.242144,-0.16548 0.485681,-0.32963 0.731749,-0.48414 0.246195,-0.16137 0.493782,-0.31188 0.742636,-0.45962 0.495174,-0.29948 0.994525,-0.57436 1.486789,-0.82741 0.329609,-0.16957 0.656435,-0.32962 0.977817,-0.47593 0.01772,0.026 0.03291,0.052 0.04937,0.0793 1.340212,2.20617 1.173381,4.91278 -0.20531,6.91237 m -1.927029,1.81493 c -1.449828,0.88215 -3.156737,1.14615 -4.804787,0.7427 -0.824784,-0.20105 -1.585141,-0.55805 -2.248411,-1.04495 -0.351508,-0.2558 -0.675802,-0.54985 -0.967059,-0.87671 0.314548,-0.34736 0.732003,-0.79049 1.23376,-1.28836 0.615423,-0.6127 1.360844,-1.30752 2.197906,-2.01188 0.217461,-0.18466 0.440239,-0.36797 0.670106,-0.55119 0.179108,0.15593 0.354292,0.3159 0.525173,0.48005 0.451378,0.41993 0.874024,0.87259 1.281606,1.31981 0.403405,0.45544 0.787697,0.91362 1.140724,1.37182 0.356951,0.45409 0.683649,0.90952 0.986045,1.34445 0.08354,0.11897 0.161261,0.23528 0.238094,0.35145 -0.08354,0.0562 -0.167083,0.11088 -0.253157,0.16282 m -8.610998,-4.67482 c -0.321509,0.22156 -0.616943,0.43358 -0.885035,0.63188 -0.300878,-1.34311 -0.149743,-2.73811 0.399354,-3.9718 0.430873,0.12594 0.886302,0.28317 1.348692,0.48689 0.490871,0.20926 0.990223,0.47194 1.488056,0.76733 0.161134,0.0943 0.318724,0.19827 0.4772,0.30223 -0.04557,0.0246 -0.08734,0.0506 -0.133414,0.0766 -1.009462,0.58132 -1.92437,1.17353 -2.694346,1.70688 m 2.01576,-6.18473 c 1.164141,-0.70714 2.493466,-1.01616 3.825577,-0.90132 0.326825,0.0273 0.65517,0.0807 0.979336,0.16003 1.310213,0.32009 2.457772,1.02988 3.316606,2.03517 -0.27075,0.0738 -0.545678,0.15317 -0.824657,0.23929 -0.549983,0.17103 -1.116168,0.36111 -1.682354,0.57857 -0.284547,0.1081 -0.568842,0.21879 -0.851999,0.33915 -0.285813,0.11494 -0.567577,0.2394 -0.84934,0.36663 -0.564919,0.25028 -1.120218,0.52381 -1.663239,0.80003 -0.112655,0.0588 -0.224297,0.11772 -0.336319,0.17781 -0.09873,-0.052 -0.196956,-0.10253 -0.294168,-0.1531 -0.291257,-0.13135 -0.57302,-0.27086 -0.8601,-0.38714 -0.573273,-0.2352 -1.138065,-0.43215 -1.685264,-0.57712 -0.470238,-0.12856 -0.927186,-0.21748 -1.355147,-0.28175 0.516819,-0.95739 1.287048,-1.79167 2.281068,-2.39625 m 10.479421,1.32125 c 0.418595,-0.15594 0.81124,-0.2681 1.159837,-0.37616 0.350243,-0.0971 0.65922,-0.17367 0.913642,-0.23931 0.514162,-0.1067 0.808203,-0.16825 0.808203,-0.16825 0,0 -0.300876,0.009 -0.828582,0.0246 -0.262903,0.0191 -0.584286,0.041 -0.953388,0.0752 -0.365305,0.0465 -0.78238,0.0889 -1.232366,0.16957 -0.225563,0.0356 -0.460872,0.0766 -0.701624,0.12857 -0.242017,0.052 -0.495175,0.0971 -0.748078,0.16272 -0.03798,0.009 -0.07468,0.0177 -0.112655,0.0273 -0.95883,-1.22952 -2.2936,-2.09392 -3.832285,-2.47 -1.809438,-0.44187 -3.683178,-0.15325 -5.275153,0.81367 -1.168192,0.70989 -2.052848,1.70965 -2.617767,2.85169 -0.08101,-0.009 -0.159488,-0.015 -0.237967,-0.0233 -0.222905,-0.005 -0.433657,-0.0101 -0.630614,-0.015 -0.196829,-0.0114 -0.381633,0.0101 -0.552514,0.0177 -0.169488,0.0101 -0.324167,0.0191 -0.464922,0.0273 -0.555426,0.0807 -0.872758,0.12722 -0.872758,0.12722 0,0 0.318598,0 0.87529,8.3e-4 0.140121,0.0127 0.292902,0.0247 0.459605,0.0398 0.165691,0.0164 0.346065,0.0219 0.53492,0.0615 0.188728,0.0314 0.389735,0.0656 0.601627,0.10265 0.03924,0.0101 0.07848,0.0191 0.117718,0.03 -0.604411,1.41282 -0.7358,3.01163 -0.330875,4.53118 -0.151389,0.11493 -0.285941,0.22022 -0.407709,0.31599 -0.218728,0.17368 -0.389862,0.31311 -0.508719,0.4144 -0.121515,0.10532 -0.187335,0.16138 -0.187335,0.16138 l -0.01646,0.0101 c -0.07342,0.0629 -0.141641,0.1341 -0.205183,0.21203 -0.308978,0.38153 -0.426696,0.85755 -0.362394,1.30886 -0.02405,0.0207 -0.04684,0.041 -0.07089,0.0615 -2.09272,1.82724 -3.352301,3.19495 -3.352301,3.19495 v 0.002 c -0.06202,0.0697 -0.05696,0.17646 0.01646,0.23931 0.06835,0.0629 0.176324,0.0574 0.23936,-0.0127 0,0 0.304927,-0.33917 0.871112,-0.91361 0.556818,-0.56483 1.367679,-1.3513 2.375622,-2.25673 0.06836,0.19837 0.172653,0.38714 0.314674,0.55118 -0.642638,0.63742 -1.163888,1.19947 -1.553623,1.63173 -0.5253,0.58542 -0.807064,0.94376 -0.807064,0.94376 v 0.002 c 0,0 0,0.002 0,0.002 -0.05696,0.074 -0.04177,0.18055 0.03038,0.23797 0.07342,0.0574 0.1805,0.0439 0.237967,-0.0315 0,0 0.269612,-0.34871 0.783773,-0.93689 0.380368,-0.43349 0.891871,-0.99698 1.522358,-1.6384 0.01646,0.004 0.01646,0.009 0.01646,0.0127 0.162779,0.13124 0.341887,0.22833 0.529097,0.29128 -1.181609,1.29521 -1.843614,2.1746 -1.843614,2.1746 v 0.002 0.002 c -0.05696,0.0752 -0.03924,0.1819 0.03797,0.23806 0.07468,0.0547 0.180247,0.0383 0.236575,-0.0369 0,0 0.248853,-0.33916 0.720738,-0.91638 0.306445,-0.3734 0.707192,-0.84523 1.190089,-1.38545 0.562008,0.067 1.144648,-0.14774 1.527674,-0.61957 0,0 0.04051,-0.0505 0.115186,-0.14363 0.04051,-0.0505 0.09493,-0.11354 0.15797,-0.18732 0.923136,1.00928 2.123984,1.72462 3.48217,2.05565 0.356951,0.0862 0.716686,0.14497 1.076296,0.17637 1.462233,0.12455 2.921554,-0.21472 4.198983,-0.99156 0.0924,-0.0561 0.18164,-0.1148 0.270624,-0.17511 v 0 c 0.08354,0.12866 0.161261,0.25448 0.238095,0.3776 0.488085,0.78362 0.860099,1.45519 1.104902,1.92434 0.124046,0.23386 0.216196,0.41984 0.274928,0.54155 0.05569,0.11898 0.08481,0.18189 0.08481,0.18189 l 0.01646,0.0164 c 0.02911,0.0629 0.06455,0.12443 0.106326,0.18466 0.458214,0.68803 1.386919,0.87393 2.074745,0.41583 0.68808,-0.45684 0.875417,-1.38688 0.417203,-2.07483 0,0 -0.05063,-0.0752 -0.143287,-0.21471 -0.09114,-0.13677 -0.225689,-0.32695 -0.399481,-0.56626 -0.345939,-0.47592 -0.851999,-1.13794 -1.494764,-1.89695 -0.161134,-0.19018 -0.331002,-0.38713 -0.51011,-0.58819 1.590583,-2.20474 1.808044,-5.24099 0.308978,-7.70696 0,-0.004 0,-0.007 -0.01646,-0.0114 0.194298,-0.0848 0.388469,-0.15727 0.577071,-0.23521 0.221765,-0.0916 0.440493,-0.16957 0.651246,-0.24206" inkscape:export-filename="C:\Users\Winner\Desktop\rect60125.png" inkscape:export-xdpi="99.884407" inkscape:export-ydpi="99.884407"></path></g></svg> 